<?xml version="1.0" encoding="UTF-8" standalone="no"?>
<!DOCTYPE svg PUBLIC "-//W3C//DTD SVG 1.1//EN" "http://www.w3.org/Graphics/SVG/1.1/DTD/svg11.dtd">
<svg width="100%" height="100%" viewBox="0 0 246 221" version="1.1" xmlns="http://www.w3.org/2000/svg" xmlns:xlink="http://www.w3.org/1999/xlink" xml:space="preserve" xmlns:serif="http://www.serif.com/" style="fill-rule:evenodd;clip-rule:evenodd;stroke-linejoin:round;stroke-miterlimit:2;">
    <g transform="matrix(1,0,0,1,2.5e-06,7.62939e-05)">
        <path d="M72.903,41.298L72.807,41.796C66.205,76.374 50.008,108.231 25.975,133.928L6.806,154.428L5.883,156.03C-1.961,169.622 -1.961,185.848 5.883,199.44C13.719,213.032 27.763,221.146 43.443,221.146C65.14,221.146 85.354,209.467 96.201,190.662C101.75,181.041 111.693,175.295 122.792,175.295C133.891,175.295 143.834,181.041 149.384,190.662C160.23,209.467 180.444,221.146 202.137,221.146C217.821,221.146 231.866,213.032 239.702,199.44C247.545,185.848 247.545,169.622 239.702,156.03L238.775,154.42L217.771,132.004C194.301,106.959 178.759,75.849 172.819,42.038C168.438,17.084 148.484,0.195 123.175,0.004C122.957,-0 122.742,-0 122.524,-0C97.426,-0 77.622,16.62 72.903,41.298ZM33.738,183.345C32.85,181.807 31.153,177.955 33.076,173.447L49.456,155.93C77.652,125.783 96.649,88.403 104.401,47.845L104.5,47.339C106.634,36.165 115.308,32.194 122.773,32.194L122.934,32.194C130.433,32.252 139.158,36.334 141.138,47.611C148.166,87.605 166.553,124.407 194.309,154.029L212.513,173.455C214.428,177.959 212.735,181.807 211.846,183.345C210.877,185.031 207.982,188.956 202.137,188.956C191.9,188.956 182.356,183.44 177.235,174.567C165.875,154.868 145.523,143.105 122.792,143.105C100.065,143.105 79.709,154.868 68.346,174.567C63.225,183.44 53.685,188.956 43.443,188.956C37.603,188.956 34.707,185.031 33.738,183.345Z" style="fill:url(#_Linear1);fill-rule:nonzero;"/>
    </g>
    <defs>
        <linearGradient id="_Linear1" x1="0" y1="0" x2="1" y2="0" gradientUnits="userSpaceOnUse" gradientTransform="matrix(-175.618,-97.7263,97.7263,-175.618,246,133)"><stop offset="0" style="stop-color:rgb(213,106,223);stop-opacity:1"/><stop offset="0.08" style="stop-color:rgb(213,106,223);stop-opacity:1"/><stop offset="0.61" style="stop-color:rgb(125,70,216);stop-opacity:1"/><stop offset="0.99" style="stop-color:rgb(32,99,177);stop-opacity:1"/><stop offset="1" style="stop-color:rgb(32,99,177);stop-opacity:1"/></linearGradient>
    </defs>
</svg>
